<?xml version="1.0" encoding="utf-8"?>
<!-- Generator: Adobe Illustrator 26.3.1, SVG Export Plug-In . SVG Version: 6.00 Build 0)  -->
<svg version="1.1" id="Ebene_1" xmlns="http://www.w3.org/2000/svg" xmlns:xlink="http://www.w3.org/1999/xlink" x="0px" y="0px"
	 viewBox="0 0 108 108" style="enable-background:new 0 0 108 108;" xml:space="preserve">
<style type="text/css">
	.st0{display:none;fill:#FFFFFF;}
	.st1{fill-rule:evenodd;clip-rule:evenodd;fill:#121212;}
</style>
<path class="st0" d="M58.8,53.8c0,2.7-2.1,4.9-4.8,4.9c-2.7,0-4.9-2.1-4.9-4.8c0,0,0-0.1,0-0.1c0-2.7,2.2-4.8,4.9-4.8
	C56.7,49.1,58.8,51.2,58.8,53.8z"/>
<path class="st0" d="M80,53.8c0-3.4-4.3-6.7-10.9-8.7c1.5-6.7,0.8-12.1-2.1-13.8c-0.7-0.4-1.5-0.6-2.4-0.6V33c0.5,0,0.9,0.1,1.2,0.3
	c1.4,0.8,2.1,4,1.6,8c-0.1,1-0.3,2.1-0.5,3.1c-2.2-0.5-4.5-0.9-6.7-1.2c-1.3-1.9-2.8-3.6-4.4-5.3c3.5-3.2,6.7-5,8.9-5v-2.4
	c-2.9,0-6.7,2.1-10.6,5.7c-3.9-3.6-7.7-5.6-10.6-5.6v2.4c2.2,0,5.4,1.7,8.9,4.9c-1.6,1.7-3,3.4-4.4,5.3c-2.4,0.3-4.7,0.6-6.7,1.2
	c-0.2-1-0.4-2-0.6-3.1c-0.5-4,0.1-7.2,1.5-8c0.3-0.2,0.7-0.3,1.2-0.3v-2.4c-0.9,0-1.7,0.2-2.4,0.6c-3,1.7-3.6,7.1-2.1,13.8
	c-6.6,2-10.9,5.3-10.9,8.7c0,3.4,4.3,6.7,10.9,8.7c-1.5,6.7-0.8,12.1,2.1,13.8c0.7,0.4,1.5,0.6,2.4,0.6c2.9,0,6.7-2.1,10.6-5.7
	c3.9,3.6,7.7,5.6,10.6,5.6c0.9,0,1.7-0.2,2.4-0.6c3-1.7,3.6-7.1,2.1-13.8C75.7,60.5,80,57.3,80,53.8z M66.2,46.8
	c-0.4,1.4-0.9,2.8-1.4,4.2c-0.4-0.9-0.9-1.7-1.4-2.5c-0.5-0.8-1-1.7-1.5-2.5C63.4,46.1,64.8,46.4,66.2,46.8z M61.3,58
	c-0.8,1.4-1.6,2.7-2.6,4c-1.6,0.1-3.2,0.2-4.8,0.2c-1.6,0-3.2-0.1-4.8-0.2c-0.9-1.3-1.8-2.7-2.6-4c-0.8-1.4-1.5-2.8-2.2-4.2
	c0.7-1.4,1.4-2.9,2.2-4.2c0.8-1.4,1.6-2.7,2.6-4c1.6-0.1,3.2-0.2,4.8-0.2c1.6,0,3.2,0.1,4.8,0.2c0.9,1.3,1.8,2.7,2.6,4
	c0.8,1.4,1.5,2.8,2.2,4.2C62.9,55.3,62.1,56.7,61.3,58z M64.8,56.7c0.6,1.4,1,2.8,1.5,4.2c-1.4,0.4-2.9,0.6-4.4,0.8
	c0.5-0.8,1-1.7,1.5-2.5C63.9,58.4,64.3,57.5,64.8,56.7z M54,68c-1-1.1-2-2.2-2.9-3.4c1,0,1.9,0.1,2.9,0.1c1,0,2,0,2.9-0.1
	C56,65.8,55.1,66.9,54,68z M46.1,61.7c-1.5-0.2-2.9-0.5-4.3-0.8c0.4-1.4,0.9-2.8,1.4-4.2c0.4,0.8,0.9,1.7,1.4,2.5
	C45.1,60.1,45.6,60.9,46.1,61.7z M54,39.7c1,1.1,2,2.2,2.9,3.4C55.9,43,55,43,54,43c-1,0-2,0-2.9,0.1C52,41.9,52.9,40.8,54,39.7z
	 M46.1,45.9c-1.1,1.6-2,3.3-2.9,5.1c-0.6-1.4-1-2.8-1.5-4.2C43.2,46.4,44.7,46.1,46.1,45.9z M36.5,59.2c-3.8-1.6-6.2-3.7-6.2-5.4
	c0-1.7,2.4-3.8,6.2-5.4c1-0.4,1.9-0.8,2.9-1.1c0.6,2.2,1.4,4.4,2.4,6.5c-0.9,2.1-1.7,4.2-2.4,6.4C38.5,60,37.5,59.6,36.5,59.2z
	 M42.2,74.3c-1.4-0.8-2.1-4-1.6-8c0.1-1,0.3-2,0.5-3.1c2.2,0.5,4.5,0.9,6.7,1.2c1.3,1.9,2.8,3.6,4.4,5.3c-3.5,3.2-6.7,5-8.9,5
	C43,74.6,42.6,74.5,42.2,74.3z M67.4,66.3c0.5,4-0.1,7.2-1.5,8c-0.3,0.2-0.7,0.3-1.2,0.3c-2.2,0-5.4-1.7-8.9-4.9
	c1.6-1.7,3-3.4,4.4-5.3c2.4-0.3,4.7-0.6,6.7-1.2C67.1,64.2,67.3,65.3,67.4,66.3z M71.5,59.2c-0.9,0.4-1.9,0.7-2.9,1.1
	c-0.6-2.2-1.4-4.4-2.4-6.5c0.9-2.1,1.7-4.2,2.4-6.4c1.1,0.3,2,0.7,3,1.1c3.8,1.6,6.2,3.7,6.2,5.4C77.6,55.5,75.2,57.6,71.5,59.2z"/>
<path id="Ellipse-Copy-Difference-Union-2" class="st1" d="M54,28c-14.4,0-26,11.6-26,26s11.6,26,26,26s26-11.6,26-26S68.4,28,54,28
	z M40.1,36h16.2c0.6-0.9,1.6-1.5,2.7-1.5c1.8,0,3.2,1.4,3.2,3.2c0,1.8-1.4,3.2-3.2,3.2c-1.2,0-2.2-0.6-2.7-1.5H38.4v31
	c0,0,0,0.1,0,0.1c1.6,1.5,3.4,2.8,5.4,3.8V60.9c0,0,0-0.1,0-0.1c0,0,0-0.1,0-0.1c0,0,0-0.1,0-0.1c0,0,0-0.1,0-0.1c0,0,0-0.1,0-0.1
	c0,0,0-0.1,0-0.1c0,0,0-0.1,0-0.1c0,0,0-0.1,0-0.1c0,0,0,0,0-0.1c0,0,0,0,0-0.1c0,0,0,0,0-0.1c0,0,0,0,0-0.1c0,0,0,0,0-0.1
	c0,0,0,0,0-0.1c0,0,0,0,0.1-0.1c0,0,0,0,0.1-0.1c0,0,0,0,0.1-0.1c0,0,0,0,0.1-0.1c0,0,0,0,0.1-0.1c0,0,0,0,0.1,0c0,0,0,0,0.1,0
	c0,0,0,0,0.1,0c0,0,0,0,0.1,0c0,0,0,0,0.1,0c0,0,0,0,0.1,0c0,0,0.1,0,0.1,0c0,0,0.1,0,0.1,0c0,0,0.1,0,0.1,0c0,0,0.1,0,0.1,0
	s0.1,0,0.1,0c0,0,0.1,0,0.1,0c0,0,0.1,0,0.1,0v0l5.6,0c0.6-0.9,1.6-1.5,2.7-1.5c1.8,0,3.2,1.4,3.2,3.2c0,1.8-1.4,3.2-3.2,3.2
	c-1.2,0-2.2-0.6-2.7-1.5h-3.9v12.9c0,0.1,0,0.1,0,0.2c2.2,0.7,4.5,1.1,6.9,1.1c2.2,0,4.2-0.3,6.2-0.9V58.6c-0.9-0.6-1.5-1.6-1.5-2.7
	c0-1.8,1.4-3.2,3.2-3.2c1.8,0,3.2,1.4,3.2,3.2c0,1.2-0.6,2.2-1.6,2.7v15.9c1.5-0.7,3-1.6,4.3-2.6V56c0,0,0-0.1,0-0.1
	c0,0,0-0.1,0-0.1c0,0,0-0.1,0-0.1c0,0,0-0.1,0-0.1c0,0,0-0.1,0-0.1c0,0,0-0.1,0-0.1c0,0,0-0.1,0-0.1c0,0,0-0.1,0-0.1c0,0,0,0,0-0.1
	c0,0,0,0,0-0.1c0,0,0,0,0-0.1c0,0,0,0,0-0.1c0,0,0,0,0-0.1c0,0,0,0,0-0.1c0,0,0,0,0.1-0.1c0,0,0,0,0.1-0.1c0,0,0,0,0.1-0.1
	c0,0,0,0,0.1-0.1c0,0,0,0,0.1-0.1c0,0,0,0,0.1,0c0,0,0,0,0.1,0c0,0,0,0,0.1,0c0,0,0,0,0.1,0c0,0,0,0,0.1,0c0,0,0,0,0.1,0
	c0,0,0.1,0,0.1,0c0,0,0.1,0,0.1,0c0,0,0.1,0,0.1,0c0,0,0.1,0,0.1,0c0,0,0.1,0,0.1,0c0,0,0.1,0,0.1,0c0,0,0.1,0,0.1,0v0h0h0h0h0h7.2
	c0-0.1,0-0.2,0-0.3c0-5.7-2.1-10.9-5.5-14.9v7.1c0,0,0,0.1,0,0.1c0,0,0,0.1,0,0.1c0,0,0,0.1,0,0.1c0,0,0,0.1,0,0.1c0,0,0,0.1,0,0.1
	c0,0,0,0.1,0,0.1c0,0,0,0.1,0,0.1c0,0,0,0.1,0,0.1c0,0,0,0,0,0.1c0,0,0,0,0,0.1c0,0,0,0,0,0.1c0,0,0,0,0,0.1c0,0,0,0,0,0.1
	c0,0,0,0-0.1,0.1c0,0,0,0-0.1,0.1c0,0,0,0-0.1,0.1s0,0-0.1,0.1c0,0,0,0-0.1,0.1c0,0,0,0-0.1,0.1c0,0,0,0-0.1,0c0,0,0,0-0.1,0
	c0,0,0,0-0.1,0c0,0,0,0-0.1,0c0,0,0,0-0.1,0c0,0-0.1,0-0.1,0c0,0-0.1,0-0.1,0c0,0-0.1,0-0.1,0c0,0-0.1,0-0.1,0c0,0-0.1,0-0.1,0
	c0,0-0.1,0-0.1,0c0,0-0.1,0-0.1,0c0,0-0.1,0-0.1,0h0c0,0,0,0,0,0H47.1v3.4c0.9,0.6,1.5,1.6,1.5,2.7c0,1.8-1.4,3.2-3.2,3.2
	c-1.8,0-3.2-1.4-3.2-3.2c0-1.1,0.6-2.1,1.5-2.7v-5.1c0,0,0-0.1,0-0.1c0,0,0-0.1,0-0.1s0-0.1,0-0.1c0,0,0-0.1,0-0.1c0,0,0-0.1,0-0.1
	c0,0,0-0.1,0-0.1c0,0,0-0.1,0-0.1s0-0.1,0-0.1c0,0,0,0,0-0.1c0,0,0,0,0-0.1c0,0,0,0,0-0.1c0,0,0,0,0-0.1c0,0,0,0,0-0.1
	c0,0,0,0,0-0.1c0,0,0,0,0.1-0.1c0,0,0,0,0.1-0.1c0,0,0,0,0.1-0.1c0,0,0,0,0.1-0.1c0,0,0,0,0.1-0.1c0,0,0,0,0.1,0c0,0,0,0,0.1,0
	c0,0,0,0,0.1,0c0,0,0,0,0.1,0s0,0,0.1,0c0,0,0,0,0.1,0c0,0,0.1,0,0.1,0c0,0,0.1,0,0.1,0c0,0,0.1,0,0.1,0s0.1,0,0.1,0
	c0,0,0.1,0,0.1,0c0,0,0.1,0,0.1,0c0,0,0.1,0,0.1,0v0l22.4,0v-8.4c0-0.1,0-0.1,0-0.2c-3.8-3-8.6-4.7-13.8-4.7
	C48.8,31.3,44,33.1,40.1,36z M31.3,54c0-4.6,1.4-8.9,3.8-12.5v25C32.7,62.9,31.3,58.6,31.3,54z M76.4,57.6h-5.3v11.2
	C73.8,65.7,75.7,61.9,76.4,57.6z"/>
</svg>
