<svg xmlns="http://www.w3.org/2000/svg" viewBox="0 0 512 512" class="ionicon"><path d="M412.19 118.66c-3.28-1.7-6.36-3.5-9.45-5.5-8.85-5.8-17.01-12.81-24.27-20.61-18.1-20.71-24.86-41.72-27.35-56.43h.1C349.14 23.9 350.03 16 350.13 16h-82.44v318.78c0 4.28.01 8.5-.18 12.69-.02.52-.05 1.04-.08 1.55-.02.24-.03.48-.05.72 0 .06-.01.12-.01.18-1.81 23.88-15.54 44.4-35.22 55.56a68.904 68.904 0 01-34.11 8.99c-38.4 0-69.54-31.32-69.54-69.96 0-38.64 31.13-69.96 69.54-69.96a68.9 68.9 0 0121.41 3.39l.1-83.94c-15.41-2.2-31.03-2-46.34.7-10.14 1.9-20.09 4.8-29.64 8.8-15.22 5.9-29.44 14.41-41.97 25.01-14.22 12.31-26.16 27.12-35.3 43.52-3.48 6-16.61 30.12-18.2 69.24-.99 22.21 5.67 45.23 8.85 54.73v.2c1.99 5.6 9.75 24.71 22.38 40.82 10.24 12.91 22.18 24.21 35.7 33.62v-.2l.2.2c39.88 27.12 84.13 25.31 84.13 25.31 7.66-.3 33.32 0 62.45-13.81 32.32-15.31 50.72-38.12 50.72-38.12 2.78-3.4 17.9-20.31 27.65-45.93 7.46-19.61 9.95-43.12 9.95-52.53v-169.1c.99.6 14.32 9.41 14.32 9.41s19.19 12.31 49.13 20.31c21.48 5.7 50.42 6.9 50.42 6.9v-81.85c-10.14 1.14-30.73-2.06-51.81-12.57z"/></svg>