<svg xmlns="http://www.w3.org/2000/svg" viewBox="0 0 512 512" class="ionicon"><g><path d="M507.01 211.16c-1.42-1.19-14.25-10.94-41.79-10.94-7.12 0-14.49.71-21.61 1.9-5.22-36.4-35.38-54-36.57-54.95l-7.36-4.28-4.75 6.9c-5.94 9.28-10.45 19.74-13.06 30.45-4.99 20.7-1.9 40.2 8.55 56.85-12.59 7.14-33.01 8.8-37.28 9.04H15.94c-8.79 0-15.91 7.14-15.91 15.94-.47 29.5 4.51 58.99 14.72 86.83 11.64 30.45 28.97 53.05 51.29 66.84C91.22 431.2 132.3 440 178.6 440c20.9 0 41.79-1.9 62.45-5.71 28.73-5.23 56.28-15.22 81.69-29.73 20.9-12.13 39.66-27.59 55.57-45.67 26.83-30.21 42.74-63.99 54.38-93.96h4.75c29.21 0 47.26-11.66 57.23-21.65 6.65-6.18 11.64-13.8 15.2-22.36l2.14-6.18-5-3.58z"/><path d="M47.29 236.37H92.4c2.14 0 4.04-1.67 4.04-4.04v-40.44c0-2.14-1.66-4.04-4.04-4.04H47.29c-2.14 0-4.04 1.67-4.04 4.04v40.44c.24 2.38 1.9 4.04 4.04 4.04M109.5 236.37h45.12c2.14 0 4.04-1.67 4.04-4.04v-40.44c0-2.14-1.66-4.04-4.04-4.04H109.5c-2.14 0-4.04 1.67-4.04 4.04v40.44c.24 2.38 1.9 4.04 4.04 4.04M172.9 236.37h45.12c2.14 0 4.04-1.67 4.04-4.04v-40.44c0-2.14-1.66-4.04-4.04-4.04H172.9c-2.14 0-4.04 1.67-4.04 4.04v40.44c.01 2.38 1.67 4.04 4.04 4.04M235.36 236.37h45.12c2.14 0 4.04-1.67 4.04-4.04v-40.44c0-2.14-1.66-4.04-4.04-4.04h-45.12c-2.14 0-4.04 1.67-4.04 4.04v40.44c0 2.38 1.9 4.04 4.04 4.04M109.5 178.57h45.12c2.14 0 4.04-1.9 4.04-4.04v-40.44c0-2.14-1.66-4.04-4.04-4.04H109.5c-2.14 0-4.04 1.67-4.04 4.04v40.44c.24 2.14 1.9 4.04 4.04 4.04M172.9 178.57h45.12c2.14 0 4.04-1.9 4.04-4.04v-40.44c0-2.14-1.66-4.04-4.04-4.04H172.9c-2.14 0-4.04 1.67-4.04 4.04v40.44c.01 2.14 1.67 4.04 4.04 4.04M235.36 178.57h45.12c2.14 0 4.04-1.9 4.04-4.04v-40.44c0-2.14-1.9-4.04-4.04-4.04h-45.12c-2.14 0-4.04 1.67-4.04 4.04v40.44c0 2.14 1.9 4.04 4.04 4.04M235.36 120.53h45.12c2.14 0 4.04-1.67 4.04-4.04V76.04c0-2.14-1.9-4.04-4.04-4.04h-45.12c-2.14 0-4.04 1.67-4.04 4.04v40.44c0 2.14 1.9 4.05 4.04 4.05M298.28 236.37h45.12c2.14 0 4.04-1.67 4.04-4.04v-40.44c0-2.14-1.66-4.04-4.04-4.04h-45.12c-2.14 0-4.04 1.67-4.04 4.04v40.44c.24 2.38 1.91 4.04 4.04 4.04"/></g></svg>