<svg xmlns="http://www.w3.org/2000/svg" viewBox="0 0 512 512" class="ionicon"><g><path d="M424.81 148.79c-.43 2.76-.93 5.58-1.49 8.48-19.17 97.96-84.76 131.8-168.54 131.8h-42.65c-10.24 0-18.88 7.4-20.47 17.46l-21.84 137.84-6.18 39.07c-.94 5.92 3.12 11.49 9.07 12.42.56.09 1.13.13 1.7.13h75.65c8.96 0 16.57-6.48 17.98-15.27l.74-3.83 14.24-89.96.91-4.94c1.39-8.82 9.02-15.3 17.98-15.3h11.31c73.3 0 130.67-29.62 147.44-115.32 7.01-35.8 3.38-65.69-15.16-86.72a72.267 72.267 0 00-20.69-15.86z"/><path d="M385.52 51.09C363.84 26.52 324.71 16 274.63 16H129.25c-10.23 0-18.96 7.4-20.54 17.48L48.16 415.47c-1.08 6.78 3.57 13.15 10.39 14.22.64.1 1.29.15 1.94.15h89.76l22.54-142.29-.7 4.46c1.56-10.05 10.26-17.47 20.47-17.46h42.65c83.77 0 149.36-33.86 168.54-131.8.57-2.9 1.05-5.72 1.49-8.48h.02c5.68-36.21-.07-60.86-19.74-83.18z"/></g></svg>