<svg xmlns="http://www.w3.org/2000/svg" viewBox="0 0 512 512" class="ionicon"><g><path d="M5.8 277.97c-1.07 0-1.92.83-2.05 2.02L0 308.64l3.74 28.16c.14 1.19.99 2.01 2.05 2.01 1.03 0 1.88-.82 2.04-2v-.01.01l4.44-28.17-4.44-28.65c-.15-1.19-1-2.02-2.03-2.02zM26.85 262.32c-.18-1.23-1.05-2.08-2.13-2.08-1.08 0-1.98.88-2.13 2.08 0 .01-5.03 46.32-5.03 46.32l5.03 45.3c.14 1.21 1.04 2.09 2.13 2.09 1.07 0 1.95-.85 2.13-2.08l5.73-45.31-5.73-46.32zM106.17 219.59c-2.06 0-3.77 1.7-3.87 3.87l-4.01 85.22 4.01 55.08c.1 2.15 1.81 3.85 3.87 3.85 2.05 0 3.76-1.7 3.88-3.86v.02l4.53-55.08-4.53-85.22c-.13-2.18-1.83-3.88-3.88-3.88zM65.12 249.21c-1.59 0-2.88 1.28-3.01 2.98l-4.51 56.47 4.51 54.63c.12 1.69 1.42 2.97 3.01 2.97 1.57 0 2.86-1.28 3-2.97l5.13-54.63-5.13-56.48c-.14-1.7-1.43-2.97-3-2.97zM147.88 367.6c2.56 0 4.64-2.08 4.75-4.74l3.93-54.15-3.93-113.46c-.1-2.66-2.19-4.74-4.75-4.74-2.58 0-4.67 2.09-4.75 4.75l-3.49 113.45 3.49 54.17c.09 2.63 2.17 4.72 4.75 4.72zM233.28 367.85c3.52 0 6.43-2.92 6.5-6.52v.04-.04l2.74-52.6-2.74-131.04c-.06-3.59-2.97-6.52-6.5-6.52s-6.44 2.92-6.5 6.52l-2.45 130.99c0 .08 2.45 52.67 2.45 52.67.06 3.58 2.98 6.5 6.5 6.5zM190.26 367.65c3.07 0 5.54-2.48 5.62-5.64v.04l3.34-53.33-3.34-114.28c-.08-3.16-2.55-5.64-5.62-5.64-3.09 0-5.56 2.47-5.63 5.64l-2.97 114.29 2.97 53.32c.07 3.12 2.54 5.6 5.63 5.6zM85.56 367.15c1.82 0 3.3-1.47 3.44-3.41l4.83-55.09-4.83-52.4c-.13-1.94-1.61-3.39-3.44-3.39-1.85 0-3.33 1.47-3.44 3.42l-4.26 52.38 4.26 55.08c.12 1.94 1.59 3.41 3.44 3.41zM44.84 364.13c1.33 0 2.41-1.06 2.57-2.52l5.43-52.96-5.42-54.96c-.16-1.47-1.24-2.53-2.57-2.53-1.35 0-2.43 1.07-2.57 2.53l-4.78 54.96 4.78 52.95c.12 1.46 1.2 2.53 2.56 2.53zM211.69 192.53c-3.33 0-6 2.67-6.07 6.09l-2.71 110.11 2.71 52.98c.07 3.37 2.73 6.04 6.07 6.04 3.33 0 5.98-2.66 6.06-6.08v.04l3.04-52.98-3.04-110.13c-.08-3.4-2.74-6.07-6.06-6.07zM126.95 367.71c2.3 0 4.2-1.89 4.31-4.3l4.23-54.71-4.23-104.71c-.12-2.42-2.01-4.3-4.31-4.3-2.32 0-4.22 1.89-4.32 4.3l-3.74 104.71 3.75 54.73c.09 2.38 1.98 4.28 4.31 4.28zM174.17 362.54v-.03l3.63-53.8-3.63-117.28c-.09-2.91-2.37-5.2-5.18-5.2-2.83 0-5.11 2.28-5.19 5.2l-3.23 117.28 3.23 53.83c.08 2.88 2.36 5.16 5.18 5.16s5.09-2.28 5.18-5.18l.01.02zM449.03 241.1c-8.63 0-16.86 1.76-24.36 4.93C419.66 188.85 372.06 144 314.01 144c-14.21 0-28.05 2.82-40.28 7.58-4.75 1.85-6.02 3.76-6.06 7.46V360.4c.05 3.88 3.04 7.12 6.8 7.5.16.02 173.44.11 174.56.11 34.78 0 62.98-28.41 62.98-63.45-.01-35.05-28.2-63.46-62.98-63.46zM254.79 158.87c-3.78 0-6.89 3.13-6.94 6.97L245 308.75l2.85 51.87c.05 3.79 3.16 6.91 6.94 6.91 3.77 0 6.88-3.12 6.93-6.97v.06l3.09-51.87-3.09-142.93c-.06-3.83-3.16-6.95-6.93-6.95z"/></g></svg>