<svg xmlns="http://www.w3.org/2000/svg" viewBox="0 0 512 512" class="ionicon"><path d="M494.07 281.6l-25.18-78.08c-.13-.72-.34-1.42-.61-2.1l-50.5-156.94c-2.76-8.31-10.49-13.88-19.17-13.82-8.66-.05-16.34 5.6-18.95 13.94l-48.14 149.55H179.56L131.34 44.59c-2.59-8.31-10.23-13.95-18.86-13.94h-.11c-8.69 0-16.39 5.62-19.12 13.95L42.7 201.73c0 .14-.11.26-.16.4l-25.63 79.48c-3.86 11.96.35 25.07 10.44 32.46l221.44 162.41c4 2.92 9.41 2.89 13.38-.07l221.48-162.34c10.09-7.39 14.3-20.51 10.42-32.47m-330.99-64.51l61.72 191.76L76.63 217.09m209.64 191.8l59.19-183.84 2.55-7.96h86.52L300.47 390.44M398.8 59.31l43.37 134.83h-86.82m-31.19 22.87l-43 133.58-25.66 79.55L186.94 217M112.27 59.31l43.46 134.83H68.97M40.68 295.58a6.186 6.186 0 01-2.21-6.9l19.03-59.03 139.58 180.62m273.26-114.69L313.92 410.22l.52-.69L453.5 229.64l19.03 59c.84 2.54-.05 5.34-2.19 6.92"/></svg>