<svg xmlns="http://www.w3.org/2000/svg" viewBox="0 0 512 512" class="ionicon"><g><path d="M344.09 233.55c-28.87 0-32.88 28.82-32.88 28.82h61.39c-.01 0 .39-28.82-28.51-28.82zM204.82 262.37H150.4v49.96h48.18c.82 0 2.05.02 3.48 0 7.75-.18 22.44-2.44 22.44-24.29.01-25.94-19.68-25.67-19.68-25.67z"/><path d="M256.01 32C132.29 32 32 132.27 32 255.99S132.29 480 256.01 480C379.71 480 480 379.71 480 255.99 480 132.28 379.7 32 256.01 32zm47.15 137.63h77.11v23.01h-77.11v-23.01zm-38.98 120.74c0 57.05-59.36 55.16-59.36 55.16h-97.26v-186.9h97.26c29.55 0 52.87 16.32 52.87 49.76s-28.52 35.57-28.52 35.57c37.6 0 35.01 46.41 35.01 46.41zm144.26-3.06h-96.85c0 34.71 32.89 32.53 32.89 32.53 31.06 0 29.97-20.11 29.97-20.11h32.9c0 53.37-63.98 49.71-63.98 49.71-76.74 0-71.8-71.46-71.8-71.46s-.07-71.8 71.8-71.8c75.65.01 65.07 81.13 65.07 81.13z"/><path d="M218.04 211.29c0-19.44-13.22-19.44-13.22-19.44H150.4v41.7h51.04c8.81 0 16.6-2.83 16.6-22.26z"/></g></svg>