<?xml version="1.0" encoding="utf-8"?>
<!-- Generator: Adobe Illustrator 28.3.0, SVG Export Plug-In . SVG Version: 6.00 Build 0)  -->
<svg version="1.1" id="Layer_1" xmlns="http://www.w3.org/2000/svg" xmlns:xlink="http://www.w3.org/1999/xlink" x="0px" y="0px"
	 viewBox="0 0 1024 1024" style="enable-background:new 0 0 1024 1024;" xml:space="preserve">
<style type="text/css">
	.st0{fill:#E02B2B;}
	.st1{fill:#820324;}
	.st2{fill:#FFFFFF;}
</style>
<path class="st0" d="M967.1,281.6v628.6c0,62.6-51.2,113.8-113.8,113.8H170.7c-62.6,0-113.8-51.2-113.8-113.8V113.8
	C56.9,51.2,108.1,0,170.7,0h514.8L967.1,281.6z"/>
<path class="st1" d="M685.5,224.7V0l281.6,281.6H742.4C711.1,281.6,685.5,256,685.5,224.7"/>
<path class="st2" d="M260.9,499.7c8.9,0,16.8-0.9,23.6-2.7s12.1-3.8,15.8-6.1l-7.3-21.2l-4.9,2.2c-2,0.9-4.1,1.6-6.3,2.1
	c-6,1.6-12.3,2.3-18.5,2.3c-6.1,0-11.4-1-15.6-3c-4.1-1.8-7.7-4.6-10.5-8c-2.8-3.6-4.7-7.7-5.8-12.1c-1.2-5-1.8-10.1-1.8-15.2
	c0-6.8,0.9-12.6,2.7-17.4c1.8-4.7,4.2-8.6,7.2-11.6c2.9-2.9,6.4-5.2,10.4-6.5c3.9-1.4,7.9-2,11.9-2c10.1-0.2,20.1,2.2,29.1,6.9
	l7.6-21.4c-3.8-2.3-7.8-4.1-12.1-5.3c-3.5-1.1-7.1-1.9-10.7-2.6c-4.5-0.8-9-1.1-13.6-1.1c-8.6,0-16.6,1.4-24,4.1
	c-7.1,2.6-13.6,6.6-19,11.9c-5.5,5.5-9.7,12.1-12.5,19.4c-3.2,8.3-4.7,17.2-4.6,26.1c0,19.6,5,34.7,15,45.3
	C227.2,494.4,241.7,499.7,260.9,499.7L260.9,499.7z M336.9,497.3c1.2-4.1,2.6-8.2,4.1-12.6c1.5-4.3,3-8.6,4.5-12.9h45.8l4.5,12.9
	c1.5,4.3,2.9,8.5,4.2,12.6h28.4c-4.1-11.8-8.3-23.5-12.6-35.2c-4-10.8-7.9-20.9-11.6-30.4c-7-17.6-14.6-35-22.7-52.1h-25.3
	c-4,8.2-7.8,16.5-11.4,25c-8.2,18.9-15.8,38.1-22.8,57.5c-4,10.8-8.2,22.5-12.6,35.2L336.9,497.3L336.9,497.3z M385.1,450.7h-33.5
	c1.8-5.1,3.6-10,5.4-14.6c2.9-7.7,5.8-15.3,8.7-22.9c1.1-2.9,2-5.3,2.6-7l2.7,7l4,10.2c1.5,3.9,3.1,8.1,4.8,12.7
	S383.3,445.6,385.1,450.7L385.1,450.7z M483,498.8c10.4,0,19.8-1.3,28.2-3.8c8.4-2.5,15.5-6.2,21.3-11.2c5.8-5,10.3-11.2,13.5-18.8
	c3.2-7.6,4.8-16.5,4.8-26.7c0-10.6-1.6-19.8-4.8-27.3c-2.9-7.3-7.6-13.7-13.6-18.7c-6.2-5-13.4-8.7-21.2-10.7
	c-8.2-2.3-17.4-3.4-27.4-3.4c-4.8,0-10.4,0.2-17.1,0.6c-6.6,0.4-13,1.2-19.1,2.3v114.6c6.1,1.2,12.3,2,18.7,2.4
	C472.7,498.6,478.3,498.8,483,498.8L483,498.8z M484.4,476c-3.4,0-6.8-0.1-10.2-0.3v-74.4c1.7-0.2,3.5-0.4,5.4-0.4l5.6-0.1
	c13.3,0,22.9,3.2,29,9.5c6.1,6.3,9.2,15.6,9.2,28c0,11.8-3.2,21-9.6,27.7C507.4,472.7,497.6,476,484.4,476z"/>
<path class="st2" d="M191.7,705.4h426.7v-31.3H191.7L191.7,705.4z M696.7,705.4h156.6v-31.3H696.7V705.4z M642,650.7h31.3V337.4H642
	V650.7z M642,885.7h31.3V729H642V885.7z"/>
<path class="st2" d="M618.4,729h78.3v-78.3h-78.3V729z M709.7,624.6H605.3c-7.1-0.1-13,5.7-13.1,12.8c0,0.1,0,0.2,0,0.2v104.4
	c0,7.3,5.7,13.1,13.1,13.1h104.4c7.1,0.1,13-5.7,13.1-12.8c0-0.1,0-0.2,0-0.2V637.7c0.1-7.1-5.7-13-12.8-13.1
	C709.9,624.6,709.8,624.6,709.7,624.6L709.7,624.6z"/>
</svg>
