<svg class="svg-icon" style="width: 1em;height: 1em;vertical-align: middle;fill: currentColor;overflow: hidden;" viewBox="0 0 1024 1024" version="1.1" xmlns="http://www.w3.org/2000/svg"><path d="M967.111111 281.6V910.222222c0 62.577778-51.2 113.777778-113.777778 113.777778H170.666667c-62.577778 0-113.777778-51.2-113.777778-113.777778V113.777778c0-62.577778 51.2-113.777778 113.777778-113.777778h514.844444L967.111111 281.6z" fill="#BABABA" /><path d="M632.234667 468.48a21.333333 21.333333 0 0 1 27.989333-1.905778l2.190222 1.905778 100.551111 100.551111a21.333333 21.333333 0 0 1 1.905778 27.989333l-1.905778 2.190223-100.551111 100.551111a21.333333 21.333333 0 0 1-32.085333-27.960889l1.905778-2.190222 85.475555-85.504-85.475555-85.475556a21.333333 21.333333 0 0 1-1.905778-27.989333l1.905778-2.161778zM377.969778 699.761778a21.333333 21.333333 0 0 1-27.989334 1.934222l-2.190222-1.934222-100.579555-100.551111a21.333333 21.333333 0 0 1-1.905778-27.989334l1.905778-2.190222 100.579555-100.551111a21.333333 21.333333 0 0 1 32.085334 27.989333l-1.905778 2.161778-85.475556 85.504 85.475556 85.475556a21.333333 21.333333 0 0 1 1.905778 27.989333l-1.905778 2.161778zM527.047111 475.392a21.333333 21.333333 0 0 1 40.334222 13.568l-0.910222 2.759111-83.342222 201.130667a21.333333 21.333333 0 0 1-40.334222-13.568l0.938666-2.759111 83.313778-201.130667z" fill="#FFFFFF" /><path d="M685.511111 224.711111V0L967.111111 281.6H742.4c-31.288889 0-56.888889-25.6-56.888889-56.888889" fill="#979797" /></svg>