<?xml version="1.0" encoding="utf-8"?>
<!-- Generator: Adobe Illustrator 28.3.0, SVG Export Plug-In . SVG Version: 6.00 Build 0)  -->
<svg version="1.1" id="Layer_1" xmlns="http://www.w3.org/2000/svg" xmlns:xlink="http://www.w3.org/1999/xlink" x="0px" y="0px"
	 viewBox="0 0 1024 1024" style="enable-background:new 0 0 1024 1024;" xml:space="preserve">
<style type="text/css">
	.st0{fill:#51ECF4;}
	.st1{fill:#FFFFFF;}
	.st2{fill:#41AFAF;}
</style>
<path class="st0" d="M967.1,281.6v628.6c0,62.6-51.2,113.8-113.8,113.8H170.7c-62.6,0-113.8-51.2-113.8-113.8V113.8
	C56.9,51.2,108.1,0,170.7,0h514.8L967.1,281.6z"/>
<path class="st1" d="M581.3,755.6h59.4L739.6,439h-59.3L581.3,755.6z"/>
<path class="st2" d="M685.5,224.7V0l281.6,281.6H742.4C711.1,281.6,685.5,256,685.5,224.7"/>
<path class="st1" d="M640.6,755.6h-59.4l-98.9-277h59.3L640.6,755.6z M442.7,755.6h-59.4L284.4,439h59.3L442.7,755.6z"/>
<path class="st1" d="M383.4,755.6h59.4l98.9-277h-59.3L383.4,755.6z"/>
</svg>
