<?xml version="1.0" encoding="utf-8"?>
<!-- Generator: Adobe Illustrator 28.3.0, SVG Export Plug-In . SVG Version: 6.00 Build 0)  -->
<svg version="1.1" id="Layer_1" xmlns="http://www.w3.org/2000/svg" xmlns:xlink="http://www.w3.org/1999/xlink" x="0px" y="0px"
	 viewBox="0 0 1228 1024" style="enable-background:new 0 0 1228 1024;" xml:space="preserve">
<path class="st0" d="M1197,212.6v540.1c0,39.6-34.5,71.4-76.8,71.4h-797c-51.8,0-88.7-46.8-73.3-92.8l126.7-375.8H70.4
	C31.7,355.4,0,326.5,0,291.1V98.4C0,63,31.7,34.1,70.4,34.1h378.8c26.7,0,51,13.9,63,35.7l39,71.4h569
	C1162.5,141.2,1197.1,173.3,1197,212.6" fill="var(--path1-color, #5398DF)" />
<path class="st1" d="M1128.7,997.9H68.3C30.6,997.9,0,967.3,0,929.6V280.4c0-37.7,30.6-68.3,68.3-68.3h1060.5
	c37.7,0,68.3,30.6,68.3,68.3v0v649.2C1197,967.3,1166.4,997.9,1128.7,997.9" fill="var(--path2-color, #85BCFF)" />
</svg>
