<svg class="svg-icon" style="width: 1.19921875em;height: 1em;vertical-align: middle;fill: currentColor;overflow: hidden;" viewBox="0 0 1228 1024" version="1.1" xmlns="http://www.w3.org/2000/svg"><path d="M1196.987733 212.5824v540.0576c0 39.594667-34.474667 71.3728-76.765866 71.3728H323.242667c-51.780267 0-88.746667-46.762667-73.250134-92.808533l126.737067-375.808H70.417067C31.675733 355.362133 0 326.4512 0 291.089067V98.372267C0 63.044267 31.675733 34.0992 70.417067 34.0992h378.811733c26.7264 0 51.029333 13.9264 63.010133 35.703467l39.048534 71.406933H1120.256c42.257067 0 76.8 32.119467 76.8 71.3728" fill="#5398DF" /><path d="M1128.721067 997.853867H68.266667a68.266667 68.266667 0 0 1-68.266667-68.266667V280.3712a68.266667 68.266667 0 0 1 68.266667-68.266667h1060.4544a68.266667 68.266667 0 0 1 68.266666 68.266667V929.5872a68.266667 68.266667 0 0 1-68.266666 68.266667" fill="#85BCFF" /><path d="M646.826667 426.666667L689.834667 513.706667l96.1536 13.994666a30.6176 30.6176 0 0 1 16.964266 52.155734L733.3888 647.68l16.384 95.744a30.583467 30.583467 0 0 1-44.373333 32.256L619.485867 730.453333l-86.016 45.226667a30.583467 30.583467 0 0 1-44.373334-32.256l16.452267-95.744L435.950933 579.925333A30.6176 30.6176 0 0 1 452.881067 527.701333l96.1536-13.960533L592.042667 426.666667A30.549333 30.549333 0 0 1 646.826667 426.666667" fill="#3D89D6" /></svg>