<?xml version="1.0" encoding="utf-8"?>
<!-- Generator: Adobe Illustrator 28.3.0, SVG Export Plug-In . SVG Version: 6.00 Build 0)  -->
<svg version="1.1" id="Layer_1" xmlns="http://www.w3.org/2000/svg" xmlns:xlink="http://www.w3.org/1999/xlink" x="0px" y="0px"
	 viewBox="0 0 1228 1024" style="enable-background:new 0 0 1228 1024;" xml:space="preserve">
<style type="text/css">
	.st0{fill:#5398DF;}
	.st1{fill:#85BCFF;}
	.st2{fill:#3D89D6;}
</style>
<path class="st0" d="M1197,212.6v540.1c0,39.6-34.5,71.4-76.8,71.4h-797c-51.8,0-88.7-46.8-73.3-92.8l126.7-375.8H70.4
	C31.7,355.4,0,326.5,0,291.1V98.4C0,63,31.7,34.1,70.4,34.1h378.8c26.7,0,51,13.9,63,35.7l39,71.4h569
	C1162.5,141.2,1197.1,173.3,1197,212.6"/>
<path class="st1" d="M1128.7,997.9H68.3C30.6,997.9,0,967.3,0,929.6V280.4c0-37.7,30.6-68.3,68.3-68.3h1060.5
	c37.7,0,68.3,30.6,68.3,68.3v0v649.2C1197,967.3,1166.4,997.9,1128.7,997.9"/>
<path class="st2" d="M698.4,725c0,9.6-7.9,17.1-17.1,17.1c-9.6,0-17.1-7.5-17.1-17.1V570.4c0-9.6,7.5-17.1,17.1-17.1
	c9.2,0,17.1,7.5,17.1,17.1V725L698.4,725z M586.4,725c0,9.6-7.5,17.1-17.1,17.1c-9.2,0-17.1-7.5-17.1-17.1V570.4
	c0-9.6,7.9-17.1,17.1-17.1c9.6,0,17.1,7.5,17.1,17.1V725L586.4,725z M744.8,505.9H505.9c-18.8,0-34.1,15.4-34.1,34.1v215.4
	c0,19.1,15.4,34.1,34.1,34.1h238.9c18.8,0,34.1-15,34.1-34.1V540C778.9,521.2,763.6,505.9,744.8,505.9L744.8,505.9z"/>
<path class="st2" d="M806.9,455v1.4c0,11.9-9.9,21.5-21.8,21.5H465.6c-11.9,0-21.8-9.6-21.8-21.5V455c0-11.9,9.9-21.8,21.8-21.8
	h117.8v-1.7c0-12.3,9.9-21.8,21.8-21.8h40.3c11.9,0,21.8,9.6,21.8,21.8v1.7h117.8C797,433.2,806.9,443.1,806.9,455"/>
</svg>
