<?xml version="1.0" encoding="utf-8"?>
<!-- Generator: Adobe Illustrator 28.3.0, SVG Export Plug-In . SVG Version: 6.00 Build 0)  -->
<svg version="1.1" id="Layer_1" xmlns="http://www.w3.org/2000/svg" xmlns:xlink="http://www.w3.org/1999/xlink" x="0px" y="0px"
	 viewBox="0 0 1024 1024" style="enable-background:new 0 0 1024 1024;" xml:space="preserve">
<style type="text/css">
	.st0{fill:#C438F9;}
	.st1{fill:#FFFFFF;}
	.st2{fill:#942EFF;}
</style>
<path class="st0" d="M952.9,281.6v628.6c0,62.9-50.9,113.8-113.8,113.8H156.4c-62.9,0-113.8-50.9-113.8-113.8V113.8
	C42.7,50.9,93.6,0,156.4,0h514.8L952.9,281.6z"/>
<path class="st1" d="M685.8,363.8c29.7,0,53.7,24.1,53.7,53.7v307c0,29.7-24.1,53.7-53.7,53.7H309.8c-29.7,0-53.7-24.1-53.7-53.7
	c0,0,0,0,0,0v-307c0-29.7,24-53.7,53.7-53.7L685.8,363.8L685.8,363.8z M612.9,513.5L474.7,660l-80.6-62.8L302,691.4v31.4
	c0,11.5,10.3,20.9,23,20.9h345.4c12.7,0,23-9.4,23-20.9V597.2L612.9,513.5L612.9,513.5z M385,427.9c-17.7-0.5-32.5,13.4-33,31.1
	c-0.5,17.7,13.4,32.5,31.1,33c0.6,0,1.3,0,1.9,0c17.7-0.5,31.6-15.3,31.1-33C415.6,442.1,402,428.5,385,427.9z"/>
<path class="st2" d="M671.3,224.7V0l281.6,281.6H728.2C696.9,281.6,671.3,256,671.3,224.7"/>
</svg>
