<?xml version="1.0" encoding="utf-8"?>
<!-- Generator: Adobe Illustrator 28.3.0, SVG Export Plug-In . SVG Version: 6.00 Build 0)  -->
<svg version="1.1" id="Layer_1" xmlns="http://www.w3.org/2000/svg" xmlns:xlink="http://www.w3.org/1999/xlink" x="0px" y="0px"
	 viewBox="0 0 1024 1024" style="enable-background:new 0 0 1024 1024;" xml:space="preserve">
<style type="text/css">
	.st0{fill:#0C04A5;}
	.st1{fill:#03037C;}
	.st2{fill:#FFFFFF;}
</style>
<path class="st0" d="M967.1,281.6v628.6c0,62.6-51.2,113.8-113.8,113.8H170.7c-62.6,0-113.8-51.2-113.8-113.8V113.8
	C56.9,51.2,108.1,0,170.7,0h514.8L967.1,281.6z"/>
<path class="st1" d="M685.5,224.7V0l281.6,281.6H742.4C711.1,281.6,685.5,256,685.5,224.7"/>
<path class="st2" d="M429,557.9h17.4c13.6,0,23.5-2.6,29.8-7.3c6.3-5,9.4-13.1,9.4-24.3c0-11.2-3.4-19.1-9.7-23.8
	c-6.3-4.9-16.2-7.3-29.5-7.3H429V557.9z M448.8,469.1c44.9,0,67.7,19.1,67.7,57.2c0,38.4-22.8,57.7-68.2,57.7H429v71.5h-30.5V469
	L448.8,469.1L448.8,469.1z M621.9,559.7h-24c-1.7-6.8-4.3-11.7-7.8-14.4c-3.7-2.9-9.3-4.2-16.8-4.2c-6.5,0-11.4,1-14.7,3.4
	c-3.9,2.4-5.6,6-5.6,11.2c0,4.2,2.8,8.1,8.8,11.2c3.7,1.8,11,4.4,22.2,7.8c12.5,3.7,22,7.9,28.1,12.8c8.8,6.8,13.4,16.5,13.4,28.4
	c0,28.7-16.8,43.1-50.3,43.1c-31.1,0-47.7-15.9-50.1-47.5h24c1.3,8.6,3.9,14.6,7.6,18.3c3.7,3.1,9.5,4.9,17.7,4.9
	c17.2,0,25.9-5.7,25.9-16.7c0-6.3-3.2-11.2-9.7-14.9c-3.4-2.1-10.8-4.5-22-7.6c-13.1-3.7-22.5-7.6-27.8-11.7
	c-8.6-6.5-12.9-15.7-12.9-27.4c0-12.5,4.1-22.2,12.7-29c8.4-7.3,19.4-10.7,33.3-10.7C603.1,516.9,619.3,531,621.9,559.7"/>
<path class="st2" d="M685.1,341.3H338.9c-31.4,0-56.9,25.5-56.9,56.9v346.1c0,31.4,25.5,56.9,56.9,56.9h0h346.1
	c31.4,0,56.9-25.5,56.9-56.9v0V398.2C741.9,366.8,716.5,341.3,685.1,341.3L685.1,341.3z M338.9,369.8h346.1
	c15.7,0,28.4,12.7,28.4,28.4v0v346.1c0,15.7-12.7,28.4-28.4,28.4l0,0H338.9c-15.7,0-28.4-12.7-28.4-28.4l0,0V398.2
	C310.5,382.5,323.2,369.8,338.9,369.8L338.9,369.8z"/>
</svg>
