<?xml version="1.0" encoding="utf-8"?>
<!-- Generator: Adobe Illustrator 28.3.0, SVG Export Plug-In . SVG Version: 6.00 Build 0)  -->
<svg version="1.1" id="Layer_1" xmlns="http://www.w3.org/2000/svg" xmlns:xlink="http://www.w3.org/1999/xlink" x="0px" y="0px"
	 viewBox="0 0 1024 1024" style="enable-background:new 0 0 1024 1024;" xml:space="preserve">
<style type="text/css">
	.st0{fill:#40D139;}
	.st1{fill:#FFFFFF;}
	.st2{fill:#32842D;}
</style>
<path class="st0" d="M967.1,281.6v628.6c0,62.9-50.9,113.8-113.8,113.8H170.7c-62.9,0-113.8-50.9-113.8-113.8V113.8
	C56.9,50.9,107.8,0,170.7,0h514.8L967.1,281.6z"/>
<path class="st1" d="M327.1,398.2h298.7c28.4,0,42.7,14.2,42.7,42.7v234.7c0,28.4-14.2,42.7-42.7,42.7H327.1
	c-28.4,0-42.7-14.2-42.7-42.7V440.9C284.4,412.4,298.7,398.2,327.1,398.2L327.1,398.2z"/>
<path class="st1" d="M738.4,457.8c15.3-8.9,34.8-3.7,43.7,11.6c2.8,4.9,4.3,10.4,4.3,16.1v154.5c0,24.6-26.7,40-48,27.7l-54-31.2
	V489L738.4,457.8z"/>
<path class="st2" d="M685.5,167.8V0l281.6,281.6H799.3C736.4,281.6,685.5,230.7,685.5,167.8"/>
</svg>
