<?xml version="1.0" encoding="utf-8"?>
<!-- Generator: Adobe Illustrator 28.3.0, SVG Export Plug-In . SVG Version: 6.00 Build 0)  -->
<svg version="1.1" id="Layer_1" xmlns="http://www.w3.org/2000/svg" xmlns:xlink="http://www.w3.org/1999/xlink" x="0px" y="0px"
	 viewBox="0 0 1024 1024" style="enable-background:new 0 0 1024 1024;" xml:space="preserve">
<style type="text/css">
	.st0{fill:#DBC73A;}
	.st1{fill:#FFFFFF;}
	.st2{fill:#A09030;}
</style>
<path class="st0" d="M952.9,281.6v628.6c0,62.9-50.9,113.8-113.8,113.8H156.4c-62.9,0-113.8-50.9-113.8-113.8V113.8
	C42.7,50.9,93.6,0,156.4,0h514.8L952.9,281.6z"/>
<path class="st1" d="M511.1,294.7l0.7,0.1c135.7,7.7,239.4,124,231.7,259.6C736.4,679.3,636.7,779,511.9,786.1
	c-1.9,0.4-3.8,0.5-5.7,0.3h-1l-7.4,0.1c-135.9,0-246-110.2-246-246.1s110.2-246,246.1-246c2.8,0,5.6,0,8.3,0.1
	C507.8,294.3,509.5,294.4,511.1,294.7z M412.2,649.9l-92.5,0c31.9,51.9,84.8,87.3,144.9,96.9C441.9,717.7,424.2,684.9,412.2,649.9
	L412.2,649.9z M675.9,650h-83.4c-11.5,34.1-28.4,66-50.1,94.8C597.9,732.6,646.1,698.4,675.9,650L675.9,650z M553.2,650H451.6
	c12.2,31.1,29.5,59.9,51.2,85.2C524.7,709.2,541.4,680.3,553.2,650z M397.6,490.7h-103c-4,16.3-6,33-5.9,49.8
	c0,25.5,4.6,49.9,12.9,72.5h100.2C393,572.8,391.6,531.4,397.6,490.7L397.6,490.7z M569.5,490.7H435.1c-6.8,40.7-5.2,82.3,4.7,122.3
	h125C574.6,572.9,576.2,531.3,569.5,490.7L569.5,490.7z M700.9,490.7h-94c6,40.7,4.6,82.1-4.2,122.3h91.2
	c8.6-23.2,12.9-47.8,12.9-72.5C706.8,523.3,704.8,506.6,700.9,490.7L700.9,490.7z M464.6,334l-0.7,0.1
	c-68.8,11.3-127.4,56.2-156.4,119.6h97.7C416.8,410.2,436.9,369.5,464.6,334L464.6,334z M502.8,345.7l-3.9,4.6
	c-25.1,30.5-43.9,65.6-55.2,103.5h117.2C549.2,414.1,529.4,377.3,502.8,345.7z M542.4,336.2l4.3,5.8c24.2,33.7,42.1,71.6,52.6,111.7
	H688C660.7,393.8,606.7,350.3,542.4,336.2L542.4,336.2z"/>
<path class="st2" d="M671.3,167.8V0l281.6,281.6H785.1C722.2,281.6,671.3,230.7,671.3,167.8"/>
</svg>
