<?xml version="1.0" encoding="utf-8"?>
<!-- Generator: Adobe Illustrator 28.3.0, SVG Export Plug-In . SVG Version: 6.00 Build 0)  -->
<svg version="1.1" id="Layer_1" xmlns="http://www.w3.org/2000/svg" xmlns:xlink="http://www.w3.org/1999/xlink" x="0px" y="0px"
	 viewBox="0 0 1024 1024" style="enable-background:new 0 0 1024 1024;" xml:space="preserve">
<style type="text/css">
	.st0{fill:#F79C39;}
	.st1{fill:#C47C33;}
	.st2{fill:#FFFFFF;}
</style>
<path class="st0" d="M967.1,281.6v628.6c0,62.6-51.2,113.8-113.8,113.8H170.7c-62.6,0-113.8-51.2-113.8-113.8V113.8
	C56.9,51.2,108.1,0,170.7,0h514.8L967.1,281.6z"/>
<path class="st1" d="M685.5,224.7V0l281.6,281.6H742.4C711.1,281.6,685.5,256,685.5,224.7"/>
<rect x="470" y="294" transform="matrix(0.7071 0.7071 -0.7071 0.7071 512 -212.0773)" class="st2" width="84" height="436"/>
<rect x="572.2" y="531.3" transform="matrix(0.7071 -0.7071 0.7071 0.7071 -254.3968 614.1682)" class="st2" width="84" height="165.7"/>
<rect x="367.8" y="327" transform="matrix(0.7071 -0.7071 0.7071 0.7071 -169.7579 409.8318)" class="st2" width="84" height="165.7"/>
</svg>
